# WaveFront *.obj file (generated by Autodesk ATF)

mtllib HYPERCUBE4th.mtl

g Solid1

v -0.500000 0.000000 -1.492891
v -0.500000 0.000000 0.507109
v -0.500000 0.001000 -1.492891
v -0.500000 0.001000 0.507109
v 0.000000 0.000000 -1.000000
v 0.000000 0.000000 0.000000
v 0.000000 0.001000 -1.000000
v 0.000000 0.001000 0.000000
vt 0.000000 0.000000 0.000000
vt 1.808864 0.000000 0.000000
vt 1.808864 0.002540 0.000000
vt 0.000000 0.002540 0.000000
vt 0.000000 0.000000 0.000000
vt 5.080000 0.000000 0.000000
vt 5.080000 0.002540 0.000000
vt 0.000000 0.002540 0.000000
vt 0.000000 0.000000 0.000000
vt 1.783329 0.000000 0.000000
vt 1.783329 0.002540 0.000000
vt 0.000000 0.002540 0.000000
vt 0.000000 0.000000 0.000000
vt 2.540000 0.000000 0.000000
vt 2.540000 0.002540 0.000000
vt 0.000000 0.002540 0.000000
vt 1.254588 0.778852 0.000000
vt -1.285412 0.778852 0.000000
vt -2.537355 -0.491148 0.000000
vt 2.542645 -0.491148 0.000000
vt 1.285412 0.778852 0.000000
vt -1.254588 0.778852 0.000000
vt -2.542645 -0.491148 0.000000
vt 2.537355 -0.491148 0.000000
vn 1.808684 0.000000 1.783329
vn 1.808684 0.000000 1.783329
vn 1.808684 0.000000 1.783329
vn 1.808684 0.000000 1.783329
vn -2.540000 0.000000 0.000000
vn -2.540000 0.000000 0.000000
vn -2.540000 0.000000 0.000000
vn -2.540000 0.000000 0.000000
vn 1.783146 0.000000 -1.808864
vn 1.783146 0.000000 -1.808864
vn 1.783146 0.000000 -1.808864
vn 1.783146 0.000000 -1.808864
vn 2.540000 0.000000 0.000000
vn 2.540000 0.000000 0.000000
vn 2.540000 0.000000 0.000000
vn 2.540000 0.000000 0.000000
vn 0.000000 2.540000 0.000000
vn 0.000000 2.540000 0.000000
vn 0.000000 2.540000 0.000000
vn 0.000000 2.540000 0.000000
vn 0.000000 -2.540000 0.000000
vn 0.000000 -2.540000 0.000000
vn 0.000000 -2.540000 0.000000
vn 0.000000 -2.540000 0.000000
usemtl 191,191,191
f 2/1/1 6/2/2 4/4/4
f 4/4/4 6/2/2 8/3/3
f 1/5/5 2/6/6 3/8/8
f 3/8/8 2/6/6 4/7/7
f 5/9/9 1/10/10 7/12/12
f 7/12/12 1/10/10 3/11/11
f 6/13/13 5/14/14 8/16/16
f 8/16/16 5/14/14 7/15/15
f 7/18/18 3/19/19 8/17/17
f 8/17/17 3/19/19 4/20/20
f 5/21/21 6/22/22 1/24/24
f 1/24/24 6/22/22 2/23/23

# 8 vertices
# 24 texture params
# 24 normals
# 12 facets

# 1 groups
